<svg width="64" height="64" viewBox="0 0 64 64" xmlns="http://www.w3.org/2000/svg">
  <circle cx="32" cy="32" r="30" fill="#0f1528"/>
  <path d="M16.5 26.8c0-3.1 2.5-5.6 5.6-5.6 2.3 0 4.3 1.3 5.2 3.3l4.8 10.6c0.3 0.6 1.2 0.6 1.4 0l4.8-10.7c0.9-2 2.9-3.2 5.1-3.2 3.1 0 5.6 2.5 5.6 5.6v7.7c0 5.9-4.8 10.7-10.7 10.7h-16.1c-5.9 0-10.7-4.8-10.7-10.7z" fill="#fff"/>
  <path d="M41.7 24.7c-0.5 0-1 0.3-1.2 0.8l-4.7 10.6c-0.7 1.5-2.8 1.5-3.5 0.1l-4.7-10.5c-0.2-0.5-0.7-0.8-1.2-0.8-0.8 0-1.5 0.7-1.5 1.5v8.2c0 3.1 2.5 5.6 5.6 5.6h11.7c3.1 0 5.6-2.5 5.6-5.6v-8.2c0-0.8-0.7-1.5-1.5-1.5z" fill="#0f1528"/>
</svg>
