<svg width="64" height="64" viewBox="0 0 64 64" xmlns="http://www.w3.org/2000/svg">
  <defs>
    <linearGradient id="tv-grad" x1="0%" y1="0%" x2="100%" y2="100%">
      <stop offset="0%" stop-color="#2b8cff"/>
      <stop offset="100%" stop-color="#163a72"/>
    </linearGradient>
  </defs>
  <rect x="4" y="4" width="56" height="56" rx="12" fill="url(#tv-grad)"/>
  <path d="M18 36c0-4.4 3.6-8 8-8 1.6 0 3.1 0.5 4.4 1.3 1.9-3.5 5.6-5.9 9.8-5.9 6.1 0 11 4.9 11 11 0 0.3 0 0.7-0.1 1h-22c-1.7 0-3 1.3-3 3s1.3 3 3 3h13c1.1 0 2 0.9 2 2s-0.9 2-2 2h-21c-4.4 0-8-3.6-8-8z" fill="#f5f7fb"/>
  <path d="M32 30l4 8 5-9" stroke="#163a72" stroke-width="2.2" stroke-linecap="round" stroke-linejoin="round" fill="none"/>
</svg>
